# xmcd
#
# Track frame offsets:
#	150
#	15721
#	30823
#	50953
#	68667
#	84799
#	105596
#	126409
#	141685
#	154844
#	170298
#	186693
#	200718
#	214298
#	233377
#	248748
#	266438
#
# Disc length: 3751 seconds
#
# Revision: 1
# Processed by: cddbd v1.5.2PL0 Copyright (c) Steve Scherf et al.
# Submitted via: audiograbber 1.83.01
#
DISCID=f10ea511
DTITLE=Various Artist - More Country Heat 2007
DYEAR=2007
DGENRE=Country
TTITLE0=Kenny Chesney - Summertime
TTITLE1=Carrie Underwood - Before He Cheats
TTITLE2=Brad Paisley - She's Everything
TTITLE3=Lonestar - Mountains
TTITLE4=Alan Jackson - Like Red On A Rose
TTITLE5=Brooks and Dunn - Believe
TTITLE6=Sara Evans - You'll Always Be My Baby
TTITLE7=Montgomery Gentry - Some People Change
TTITLE8=Aaron Lines - Seeing Things
TTITLE9=Duane Steele - Ghost Town
TTITLE10=Chris Cummings - For The Music
TTITLE11=Adam Gregory - She's So California
TTITLE12=Emerson Drive - Countrified Soul
TTITLE13=Craig Morgan - Little Bit of Life
TTITLE14=Jason Aldean - Amarillo Sky
TTITLE15=Charlie Major and Kim Mitchell - Young at Heart
TTITLE16=Jason Blaine - What I Can't Forget
EXTD=
EXTT0=
EXTT1=
EXTT2=
EXTT3=
EXTT4=
EXTT5=
EXTT6=
EXTT7=
EXTT8=
EXTT9=
EXTT10=
EXTT11=
EXTT12=
EXTT13=
EXTT14=
EXTT15=
EXTT16=
PLAYORDER=
